<?xml version="1.0" encoding="UTF-8"?>
<svg xmlns="http://www.w3.org/2000/svg" xmlns:xlink="http://www.w3.org/1999/xlink" width="375pt" height="374.999991pt" viewBox="0 0 375 374.999991" version="1.2">
<defs>
<filter id="alpha" filterUnits="objectBoundingBox" x="0%" y="0%" width="100%" height="100%">
  <feColorMatrix type="matrix" in="SourceGraphic" values="0 0 0 0 1 0 0 0 0 1 0 0 0 0 1 0 0 0 1 0"/>
</filter>
<mask id="mask0">
  <g filter="url(#alpha)">
<rect x="0" y="0" width="375" height="374.999991" style="fill:rgb(0%,0%,0%);fill-opacity:0.9098;stroke:none;"/>
  </g>
</mask>
<clipPath id="clip2">
  <path d="M 0.558594 0.921875 L 191.359375 0.921875 L 191.359375 207.320312 L 0.558594 207.320312 Z M 0.558594 0.921875 "/>
</clipPath>
<clipPath id="clip1">
  <rect x="0" y="0" width="192" height="208"/>
</clipPath>
<g id="surface5" clip-path="url(#clip1)">
<g clip-path="url(#clip2)" clip-rule="nonzero">
<path style=" stroke:none;fill-rule:nonzero;fill:rgb(94.509888%,91.758728%,18.03894%);fill-opacity:1;" d="M 180.199219 0.960938 L 11.585938 0.960938 C 5.519531 0.960938 0.640625 5.84375 0.640625 11.914062 L 0.640625 196.253906 C 0.640625 202.320312 5.519531 207.203125 11.585938 207.203125 L 180.199219 207.203125 C 186.261719 207.203125 191.140625 202.320312 191.140625 196.253906 L 191.140625 11.914062 C 191.140625 5.84375 186.261719 0.960938 180.199219 0.960938 Z M 180.199219 0.960938 "/>
</g>
</g>
<clipPath id="clip3">
  <path d="M 152.003906 113.703125 L 227.753906 113.703125 L 227.753906 232 L 152.003906 232 Z M 152.003906 113.703125 "/>
</clipPath>
<clipPath id="clip4">
  <path d="M 152.003906 229 L 227.753906 229 L 227.753906 240.453125 L 152.003906 240.453125 Z M 152.003906 229 "/>
</clipPath>
</defs>
<g id="surface1">
<use xlink:href="#surface5" transform="matrix(1,0,0,1,94,73)" mask="url(#mask0)"/>
<path style=" stroke:none;fill-rule:nonzero;fill:rgb(94.509888%,91.758728%,18.03894%);fill-opacity:1;" d="M 211.796875 122.683594 L 211.796875 123.683594 L 159.992188 123.683594 L 159.992188 142.84375 C 159.992188 148.234375 163.777344 155.121094 168.0625 158.3125 L 187.785156 172.886719 C 187.886719 172.984375 187.886719 173.085938 187.886719 173.285156 L 187.886719 177.675781 C 187.886719 177.875 188.085938 177.976562 187.886719 178.074219 L 167.960938 192.746094 C 163.675781 195.9375 159.992188 202.824219 159.992188 208.214844 L 159.992188 229.472656 L 167.960938 229.472656 L 167.960938 210.808594 C 167.960938 206.816406 170.949219 201.628906 174.335938 199.132812 L 190.875 187.15625 C 191.074219 187.058594 191.375 187.058594 191.574219 187.15625 L 207.3125 199.132812 C 210.503906 201.527344 212.792969 206.617188 212.792969 210.808594 L 212.792969 229.472656 L 220.761719 229.472656 L 220.761719 208.316406 C 220.761719 208.015625 220.960938 207.617188 220.960938 207.316406 C 220.5625 202.128906 217.277344 195.839844 213.292969 192.84375 L 193.265625 178.175781 C 193.167969 178.074219 192.867188 177.976562 192.867188 177.773438 L 192.867188 173.382812 C 192.867188 173.183594 193.167969 173.085938 193.367188 172.984375 L 213.292969 158.414062 C 217.375 155.417969 220.5625 149.132812 220.960938 143.941406 C 220.960938 143.640625 220.863281 143.242188 220.863281 142.945312 L 220.863281 122.683594 Z M 211.796875 122.683594 "/>
<path style=" stroke:none;fill-rule:nonzero;fill:rgb(94.509888%,91.758728%,18.03894%);fill-opacity:1;" d="M 191.773438 164.003906 C 191.671875 164.101562 191.574219 164.101562 191.472656 164.101562 C 191.375 164.101562 191.273438 164.101562 191.175781 164.003906 L 174.933594 152.027344 C 174.734375 151.925781 174.734375 151.625 174.734375 151.425781 C 174.835938 151.226562 175.035156 151.128906 175.234375 151.128906 L 207.710938 151.128906 C 207.910156 151.128906 208.109375 151.226562 208.210938 151.425781 C 208.308594 151.625 208.210938 151.828125 208.011719 152.027344 Z M 191.773438 164.003906 "/>
<path style=" stroke:none;fill-rule:nonzero;fill:rgb(94.509888%,91.758728%,18.03894%);fill-opacity:1;" d="M 224.25 122.683594 C 226.144531 122.683594 226.742188 121.085938 226.742188 119.089844 L 226.742188 118.09375 C 226.742188 116.195312 226.144531 114.699219 224.25 114.699219 L 158.496094 114.699219 C 156.503906 114.699219 154.011719 116.195312 154.011719 118.09375 L 154.011719 119.089844 C 154.011719 120.988281 156.605469 122.683594 158.496094 122.683594 Z M 224.25 122.683594 "/>
<path style=" stroke:none;fill-rule:nonzero;fill:rgb(94.509888%,91.758728%,18.03894%);fill-opacity:1;" d="M 159.492188 230.472656 L 158 230.472656 C 156.105469 230.472656 154.011719 232.066406 154.011719 233.964844 L 154.011719 234.960938 C 154.011719 236.859375 156.105469 238.457031 158 238.457031 L 223.753906 238.457031 C 225.644531 238.457031 226.742188 236.859375 226.742188 234.960938 L 226.742188 234.464844 C 226.742188 232.269531 225.445312 230.472656 223.253906 230.472656 Z M 159.492188 230.472656 "/>
<path style=" stroke:none;fill-rule:nonzero;fill:rgb(100%,77.249146%,18.429565%);fill-opacity:1;" d="M 206.714844 199.929688 L 191.175781 188.15625 L 174.933594 199.929688 C 171.847656 202.226562 168.957031 207.21875 168.957031 210.808594 L 168.957031 229.472656 L 211.796875 229.472656 L 211.796875 210.808594 C 211.796875 206.917969 209.703125 202.027344 206.714844 199.929688 Z M 206.714844 199.929688 "/>
<path style=" stroke:none;fill-rule:nonzero;fill:rgb(94.119263%,78.819275%,37.649536%);fill-opacity:1;" d="M 191.472656 163.003906 L 206.117188 152.125 L 176.726562 152.125 Z M 191.472656 163.003906 "/>
<g clip-path="url(#clip3)" clip-rule="nonzero">
<path style="fill:none;stroke-width:2;stroke-linecap:round;stroke-linejoin:round;stroke:rgb(0%,0%,0%);stroke-opacity:1;stroke-miterlimit:10;" d="M 84.999722 11.001771 L 31.499608 11.001771 C 29.300007 11.001771 25.998644 8.199379 25.998644 5.999736 L 25.998644 5.001677 C 25.998644 2.798121 29.300007 1.999674 31.499608 1.999674 L 97.499419 1.999674 C 99.699021 1.999674 100.000927 2.798121 100.000927 5.001677 L 100.000927 5.999736 C 100.000927 8.199379 99.699021 11.001771 97.499419 11.001771 L 93.998093 11.001771 L 93.998093 30.19972 C 93.998093 35.698827 90.300723 42.900504 85.90152 46.098205 L 65.999242 60.799021 L 65.999242 65.198306 L 85.90152 79.801272 C 90.300723 83.100737 93.998093 90.200651 93.998093 95.699758 L 93.998093 118.001474 L 32.001478 118.001474 L 32.001478 95.801521 C 32.001478 90.2985 35.600826 83.100737 40.098051 79.899121 L 60.000329 65.198306 L 60.000329 60.799021 L 40.098051 46.199968 C 35.600826 42.900504 32.001478 35.80059 32.001478 30.19972 L 32.001478 15.001833 " transform="matrix(0.996274,0,0,0.998031,127.113848,112.703481)"/>
</g>
<g clip-path="url(#clip4)" clip-rule="nonzero">
<path style="fill:none;stroke-width:2;stroke-linecap:round;stroke-linejoin:round;stroke:rgb(0%,0%,0%);stroke-opacity:1;stroke-miterlimit:10;" d="M 100.000927 122.999594 C 100.000927 125.199237 98.201253 126.999656 96.001651 126.999656 L 30.00184 126.999656 C 27.798318 126.999656 25.998644 125.199237 25.998644 122.999594 L 25.998644 122.001536 C 25.998644 119.801893 27.798318 118.001474 30.00184 118.001474 L 96.001651 118.001474 C 98.201253 118.001474 100.000927 119.801893 100.000927 122.001536 Z M 100.000927 122.999594 " transform="matrix(0.996274,0,0,0.998031,127.113848,112.703481)"/>
</g>
<path style="fill:none;stroke-width:2;stroke-linecap:round;stroke-linejoin:round;stroke:rgb(0%,0%,0%);stroke-opacity:1;stroke-miterlimit:10;" d="M 40.999848 116.999501 L 40.999848 98.298624 C 40.999848 94.400325 44.301211 89.300441 47.500632 86.999036 L 64.199568 74.99885 L 79.898685 86.999036 C 83.000085 89.300441 84.999722 94.400325 84.999722 98.298624 L 84.999722 116.999501 " transform="matrix(0.996274,0,0,0.998031,127.113848,112.703481)"/>
<path style="fill:none;stroke-width:2;stroke-linecap:round;stroke-linejoin:round;stroke:rgb(0%,0%,0%);stroke-opacity:1;stroke-miterlimit:10;" d="M 70.998337 46.301731 L 64.599496 50.998477 L 48.198544 38.998291 L 80.800483 38.998291 " transform="matrix(0.996274,0,0,0.998031,127.113848,112.703481)"/>
</g>
</svg>
